<?xml version="1.0" encoding="UTF-8"?>
<svg width="900" height="700" xmlns="http://www.w3.org/2000/svg">
  <defs>
    <linearGradient id="arbitrumGrad" x1="0%" y1="0%" x2="100%" y2="100%">
      <stop offset="0%" style="stop-color:#28A0F0"/>
      <stop offset="100%" style="stop-color:#1B70A7"/>
    </linearGradient>
    <linearGradient id="solanaGrad" x1="0%" y1="0%" x2="100%" y2="100%">
      <stop offset="0%" style="stop-color:#9945FF"/>
      <stop offset="100%" style="stop-color:#14F195"/>
    </linearGradient>
    <linearGradient id="tonGrad" x1="0%" y1="0%" x2="100%" y2="100%">
      <stop offset="0%" style="stop-color:#0088CC"/>
      <stop offset="100%" style="stop-color:#00B4E6"/>
    </linearGradient>
    <linearGradient id="goldGrad" x1="0%" y1="0%" x2="100%" y2="100%">
      <stop offset="0%" style="stop-color:#FFD700"/>
      <stop offset="100%" style="stop-color:#FFA500"/>
    </linearGradient>
    <filter id="shadow" x="-20%" y="-20%" width="140%" height="140%">
      <feDropShadow dx="3" dy="3" stdDeviation="4" flood-opacity="0.3"/>
    </filter>
  </defs>
  
  <!-- Background -->
  <rect width="900" height="700" fill="#0D1117"/>
  
  <!-- Title -->
  <text x="450" y="45" fill="#FFFFFF" font-family="Arial, sans-serif" font-size="28" font-weight="bold" text-anchor="middle">TRINITY PROTOCOL™</text>
  <text x="450" y="75" fill="#8B949E" font-family="Arial, sans-serif" font-size="14" text-anchor="middle">2-of-3 Multi-Chain Consensus with Hardware TEE Security</text>
  
  <!-- Layer 8 Label -->
  <rect x="20" y="100" width="100" height="30" rx="5" fill="#238636"/>
  <text x="70" y="120" fill="#FFFFFF" font-family="Arial, sans-serif" font-size="12" font-weight="bold" text-anchor="middle">LAYER 8</text>
  
  <!-- Validator Nodes -->
  <!-- Arbitrum -->
  <rect x="100" y="140" width="200" height="120" rx="15" fill="url(#arbitrumGrad)" filter="url(#shadow)"/>
  <text x="200" y="175" fill="#FFFFFF" font-family="Arial, sans-serif" font-size="18" font-weight="bold" text-anchor="middle">ARBITRUM</text>
  <text x="200" y="200" fill="#FFFFFF" font-family="Arial, sans-serif" font-size="12" text-anchor="middle">Primary Security</text>
  <rect x="140" y="215" width="120" height="30" rx="5" fill="rgba(255,255,255,0.2)"/>
  <text x="200" y="235" fill="#FFFFFF" font-family="Arial, sans-serif" font-size="11" text-anchor="middle">Intel SGX</text>
  
  <!-- Solana -->
  <rect x="350" y="140" width="200" height="120" rx="15" fill="url(#solanaGrad)" filter="url(#shadow)"/>
  <text x="450" y="175" fill="#FFFFFF" font-family="Arial, sans-serif" font-size="18" font-weight="bold" text-anchor="middle">SOLANA</text>
  <text x="450" y="200" fill="#FFFFFF" font-family="Arial, sans-serif" font-size="12" text-anchor="middle">High-Frequency Monitor</text>
  <rect x="390" y="215" width="120" height="30" rx="5" fill="rgba(255,255,255,0.2)"/>
  <text x="450" y="235" fill="#FFFFFF" font-family="Arial, sans-serif" font-size="11" text-anchor="middle">Intel SGX</text>
  
  <!-- TON -->
  <rect x="600" y="140" width="200" height="120" rx="15" fill="url(#tonGrad)" filter="url(#shadow)"/>
  <text x="700" y="175" fill="#FFFFFF" font-family="Arial, sans-serif" font-size="18" font-weight="bold" text-anchor="middle">TON</text>
  <text x="700" y="200" fill="#FFFFFF" font-family="Arial, sans-serif" font-size="12" text-anchor="middle">Quantum Recovery</text>
  <rect x="640" y="215" width="120" height="30" rx="5" fill="rgba(255,255,255,0.2)"/>
  <text x="700" y="235" fill="#FFFFFF" font-family="Arial, sans-serif" font-size="11" text-anchor="middle">AMD SEV-SNP</text>
  
  <!-- Connection Lines to Consensus -->
  <line x1="200" y1="260" x2="200" y2="310" stroke="#58A6FF" stroke-width="3"/>
  <line x1="200" y1="310" x2="450" y2="310" stroke="#58A6FF" stroke-width="3"/>
  <line x1="450" y1="260" x2="450" y2="310" stroke="#58A6FF" stroke-width="3"/>
  <line x1="700" y1="260" x2="700" y2="310" stroke="#58A6FF" stroke-width="3"/>
  <line x1="700" y1="310" x2="450" y2="310" stroke="#58A6FF" stroke-width="3"/>
  <line x1="450" y1="310" x2="450" y2="340" stroke="#58A6FF" stroke-width="3"/>
  
  <!-- Consensus Gate -->
  <rect x="300" y="340" width="300" height="80" rx="15" fill="url(#goldGrad)" filter="url(#shadow)"/>
  <text x="450" y="375" fill="#1A1A1A" font-family="Arial, sans-serif" font-size="20" font-weight="bold" text-anchor="middle">2-OF-3 CONSENSUS</text>
  <text x="450" y="400" fill="#1A1A1A" font-family="Arial, sans-serif" font-size="14" text-anchor="middle">Any 2 validators must agree</text>
  
  <!-- Arrow down -->
  <polygon points="450,420 430,460 440,460 440,480 460,480 460,460 470,460" fill="#238636"/>
  
  <!-- Protected Operations -->
  <rect x="100" y="500" width="700" height="140" rx="15" fill="#161B22" stroke="#30363D" stroke-width="2"/>
  <text x="450" y="535" fill="#FFFFFF" font-family="Arial, sans-serif" font-size="18" font-weight="bold" text-anchor="middle">PROTECTED OPERATIONS</text>
  
  <!-- Operation boxes -->
  <rect x="130" y="555" width="180" height="60" rx="10" fill="#21262D" stroke="#30363D"/>
  <text x="220" y="590" fill="#58A6FF" font-family="Arial, sans-serif" font-size="14" font-weight="bold" text-anchor="middle">ChronosVault</text>
  <text x="220" y="605" fill="#8B949E" font-family="Arial, sans-serif" font-size="11" text-anchor="middle">22 Vault Types</text>
  
  <rect x="360" y="555" width="180" height="60" rx="10" fill="#21262D" stroke="#30363D"/>
  <text x="450" y="590" fill="#58A6FF" font-family="Arial, sans-serif" font-size="14" font-weight="bold" text-anchor="middle">HTLC Bridge</text>
  <text x="450" y="605" fill="#8B949E" font-family="Arial, sans-serif" font-size="11" text-anchor="middle">Atomic Swaps</text>
  
  <rect x="590" y="555" width="180" height="60" rx="10" fill="#21262D" stroke="#30363D"/>
  <text x="680" y="590" fill="#58A6FF" font-family="Arial, sans-serif" font-size="14" font-weight="bold" text-anchor="middle">Cross-Chain</text>
  <text x="680" y="605" fill="#8B949E" font-family="Arial, sans-serif" font-size="11" text-anchor="middle">Transfers</text>
  
  <!-- Footer -->
  <text x="450" y="675" fill="#8B949E" font-family="Arial, sans-serif" font-size="12" text-anchor="middle">chronosvault.org | "Mathematically Proven. Hardware Protected."</text>
  
  <!-- Security badge -->
  <rect x="750" y="100" width="130" height="30" rx="5" fill="#238636"/>
  <text x="815" y="120" fill="#FFFFFF" font-family="Arial, sans-serif" font-size="11" font-weight="bold" text-anchor="middle">~10^-50 Security</text>
</svg>
